<?xml version="1.0" standalone="no"?>
<!DOCTYPE svg PUBLIC "-//W3C//DTD SVG 20010904//EN"
 "http://www.w3.org/TR/2001/REC-SVG-20010904/DTD/svg10.dtd">
<svg version="1.0" xmlns="http://www.w3.org/2000/svg"
 width="150.000000pt" height="150.000000pt" viewBox="0 0 150.000000 150.000000"
 preserveAspectRatio="xMidYMid meet">
<metadata>
Created by potrace 1.14, written by Peter Selinger 2001-2017
</metadata>
<g transform="translate(0.000000,150.000000) scale(0.100000,-0.100000)"
fill="#000000" stroke="none">
<path d="M615 1486 c-161 -32 -271 -92 -390 -211 -152 -152 -219 -312 -219
-525 0 -140 16 -209 80 -340 39 -79 62 -109 138 -186 77 -78 105 -98 186 -138
131 -64 201 -80 340 -80 213 0 373 67 525 219 152 151 218 311 219 525 0 212
-66 372 -219 526 -77 78 -104 98 -185 138 -52 25 -122 53 -155 61 -86 22 -236
27 -320 11z m410 -406 c88 -18 139 -74 151 -166 11 -89 0 -274 -18 -309 -36
-68 -82 -92 -194 -102 l-73 -6 -62 -93 c-38 -59 -68 -94 -79 -94 -11 0 -41 35
-79 94 l-62 93 -73 6 c-84 7 -121 19 -154 50 -46 43 -56 75 -60 208 -6 168 7
227 58 273 44 39 53 43 160 56 91 11 415 4 485 -10z"/>
<path d="M543 865 c-3 -9 -1 -21 4 -26 5 -5 92 -8 209 -7 191 3 199 4 199 23
0 19 -8 20 -203 23 -177 2 -203 0 -209 -13z"/>
<path d="M543 745 c-11 -30 12 -36 123 -33 101 3 109 4 109 23 0 19 -8 20
-113 23 -95 2 -113 0 -119 -13z"/>
</g>
</svg>
